<svg width="24" height="24" viewBox="0 0 24 24" fill="none" xmlns="http://www.w3.org/2000/svg">
<g id="arrow 1">
<path id="Vector" d="M10.7 17.275C10.9 17.075 10.996 16.8334 10.988 16.55C10.9793 16.2667 10.875 16.025 10.675 15.825L7.85 13H19C19.2833 13 19.521 12.904 19.713 12.712C19.9043 12.5207 20 12.2834 20 12C20 11.7167 19.9043 11.479 19.713 11.287C19.521 11.0957 19.2833 11 19 11H7.85L10.7 8.15005C10.9 7.95005 11 7.71238 11 7.43705C11 7.16238 10.9 6.92505 10.7 6.72505C10.5 6.52505 10.2623 6.42505 9.987 6.42505C9.71233 6.42505 9.475 6.52505 9.275 6.72505L4.7 11.3C4.6 11.4 4.529 11.5084 4.487 11.625C4.44567 11.7417 4.425 11.8667 4.425 12C4.425 12.1334 4.44567 12.2584 4.487 12.375C4.529 12.4917 4.6 12.6 4.7 12.7L9.3 17.3C9.48333 17.4834 9.71233 17.575 9.987 17.575C10.2623 17.575 10.5 17.475 10.7 17.275Z" fill="white"/>
</g>
</svg>
