<svg width="20" height="20" viewBox="0 0 20 20" fill="none" xmlns="http://www.w3.org/2000/svg">
<g id="icon:twitter">
<path id="Vector" d="M19.3275 5.38601C19.2802 5.2718 19.2001 5.17417 19.0973 5.10547C18.9946 5.03678 18.8737 5.0001 18.7501 5.00007H16.3728C16.0404 4.43459 15.5673 3.96473 14.9996 3.63617C14.4319 3.30761 13.7888 3.13154 13.1329 3.12507C12.6443 3.11866 12.1593 3.21005 11.7064 3.39386C11.2536 3.57767 10.8422 3.85019 10.4962 4.19538C10.1402 4.54478 9.85759 4.96183 9.66506 5.42201C9.47253 5.8822 9.37395 6.37624 9.37512 6.87507V7.35085C6.22981 6.52116 3.65715 3.96257 3.62981 3.93523C3.54596 3.85063 3.43968 3.79176 3.32349 3.76555C3.20731 3.73933 3.08605 3.74686 2.974 3.78724C2.86194 3.82763 2.76376 3.8992 2.69102 3.99351C2.61828 4.08783 2.574 4.20097 2.5634 4.3196C2.22668 8.0532 3.31106 10.5516 4.28215 11.9899C4.75565 12.7009 5.33167 13.338 5.99153 13.8805C4.80168 15.2501 2.92825 15.9696 2.90793 15.9774C2.81974 16.0104 2.74015 16.063 2.67512 16.1311C2.61008 16.1992 2.56128 16.2811 2.53236 16.3708C2.50343 16.4604 2.49514 16.5554 2.50809 16.6487C2.52104 16.7419 2.55491 16.8311 2.60715 16.9094C2.66575 16.9969 2.90012 17.304 3.47278 17.5907C4.18059 17.9454 5.11575 18.1251 6.25012 18.1251C11.7712 18.1251 16.3845 13.8735 16.8556 8.4032L19.1923 6.06726C19.2797 5.9798 19.3392 5.8684 19.3632 5.74714C19.3873 5.62587 19.3748 5.5002 19.3275 5.38601ZM15.8118 7.68366C15.7047 7.79108 15.6403 7.93381 15.6306 8.08523C15.3126 13.0141 11.1939 16.8751 6.25012 16.8751C5.42512 16.8751 4.84387 16.7657 4.43606 16.6344C5.33528 16.1462 6.58918 15.3063 7.39543 14.0969C7.44275 14.0258 7.475 13.9458 7.49017 13.8617C7.50534 13.7777 7.50312 13.6914 7.48365 13.6082C7.46417 13.525 7.42786 13.4467 7.37694 13.3782C7.32603 13.3096 7.26159 13.2522 7.18762 13.2094C7.1509 13.1884 3.75715 11.1516 3.75012 5.70945C5.00012 6.72507 7.28528 8.30085 9.89621 8.73991C9.9857 8.755 10.0774 8.75042 10.1649 8.72649C10.2525 8.70256 10.3337 8.65986 10.4031 8.60135C10.4725 8.54284 10.5283 8.46993 10.5666 8.38768C10.6049 8.30543 10.6249 8.21582 10.6251 8.12507V6.87507C10.6244 6.54167 10.6904 6.2115 10.8192 5.90399C10.948 5.59647 11.137 5.31783 11.3751 5.08445C11.6034 4.85577 11.8751 4.67518 12.1744 4.55333C12.4736 4.43149 12.7942 4.37088 13.1173 4.37507C14.1064 4.38757 15.0306 4.9907 15.4173 5.87585C15.4661 5.98714 15.5462 6.0818 15.6479 6.14827C15.7496 6.21473 15.8685 6.25011 15.99 6.25007H17.24L15.8118 7.68366Z" fill="white"/>
</g>
</svg>
